# Blender v2.79 (sub 0) OBJ File: 'DevShip.blend'
# www.blender.org
mtllib DevShip.mtl
o Cube
v 1.010169 -0.347344 -1.988752
v 1.010169 -0.347344 -0.477953
v 1.000000 0.175758 -1.988751
v 0.999999 0.175758 -0.477953
v 0.457980 -0.346121 -1.988752
v 0.457441 -0.346121 0.011276
v 0.457980 0.175758 -1.988751
v 0.457440 0.175758 0.011277
v 1.003487 -0.392233 -0.752354
v 1.000000 0.175758 -0.752353
v 0.457980 -0.391504 -0.752354
v 0.457980 0.175758 -0.752353
v 0.319442 0.543698 -0.003088
v 0.457980 0.397916 -0.737940
v 0.335216 -0.436879 1.489628
v 0.324352 -0.170581 1.621035
v 0.178570 0.023564 1.700808
v 0.118827 -0.497460 2.002986
v 0.110250 -0.368929 2.106723
v 0.105284 -0.279077 2.166790
v 1.000000 -0.346121 -0.477953
v 0.999999 0.175758 -0.477953
v 0.457441 -0.346121 0.011276
v 0.457440 0.175758 0.011277
v 0.884891 -0.192781 -0.477935
v 0.884891 0.022418 -0.477934
v 0.572549 -0.192781 -0.196293
v 0.572549 0.022418 -0.196293
v 0.927314 0.339598 -1.988751
v 0.530667 0.339598 -1.988751
v 0.927313 0.339598 -0.994595
v 0.530666 0.339598 -0.994595
v 0.927314 -0.440749 -1.988752
v 0.530666 -0.440749 -1.988752
v 0.927314 -0.440749 -0.994595
v 0.530666 -0.440749 -0.994595
v 1.073859 -0.426666 -2.237914
v 1.073860 0.237441 -2.237914
v 0.384121 -0.426666 -2.237914
v 0.384121 0.237441 -2.237914
v 0.981364 0.445934 -2.237914
v 0.476617 0.445934 -2.237914
v 0.981363 -0.547085 -2.237914
v 0.476617 -0.547085 -2.237914
v 0.982912 -0.327486 -1.995673
v 0.982912 0.161487 -1.995672
v 0.475068 -0.327486 -1.995673
v 0.475068 0.161487 -1.995672
v 0.914809 0.314997 -1.995672
v 0.543172 0.314997 -1.995672
v 0.914809 -0.416148 -1.995673
v 0.543171 -0.416148 -1.995673
v 1.000000 -0.271857 -0.752354
v 3.028953 -0.641582 -2.016121
v 3.028953 -0.641582 -1.161285
v 3.025137 -0.667216 -1.361455
v 3.035197 -0.599634 -1.361455
v 1.959247 -0.523152 -1.027618
v 1.995876 -0.491630 -0.788387
v 1.974154 -0.427553 -1.027654
v 1.643000 -0.445569 -2.240960
v 0.972406 0.237957 -1.843543
v 0.972406 0.237957 -0.993119
v 0.954908 0.277399 -1.843543
v 0.954908 0.277399 -1.159739
v 2.960378 0.814236 -1.979240
v 2.960377 0.814236 -1.445965
v 2.949405 0.838969 -1.979240
v 2.949405 0.838969 -1.550447
v 1.704354 0.555249 -2.085065
v 1.836762 0.507289 -1.902128
v 1.969383 0.508353 -1.212800
v 1.928700 0.540468 -1.345078
v -1.010169 -0.347344 -1.988752
v -1.010169 -0.347344 -0.477953
v -1.000000 0.175758 -1.988751
v -0.999999 0.175758 -0.477953
v 0.000000 -0.346121 -1.988752
v 0.000000 -0.346121 0.011248
v 0.000000 0.175758 -1.988751
v -0.457980 -0.346121 -1.988752
v -0.457441 -0.346121 0.011276
v -0.457980 0.175758 -1.988751
v -0.457440 0.175758 0.011277
v -1.003487 -0.392233 -0.752354
v -1.000000 0.175758 -0.752353
v 0.000000 -0.391504 -0.752354
v -0.457980 -0.391504 -0.752354
v -0.457980 0.175758 -0.752353
v 0.000000 0.543698 -0.003165
v -0.319442 0.543698 -0.003088
v 0.000000 0.397916 -0.737940
v -0.457980 0.397916 -0.737940
v 0.000000 -0.436879 1.494643
v -0.335216 -0.436879 1.489628
v -0.324352 -0.170581 1.621035
v 0.000000 0.023564 1.706544
v -0.178570 0.023564 1.700808
v 0.000000 -0.497460 2.009753
v -0.118827 -0.497460 2.002986
v -0.110250 -0.368929 2.106723
v 0.000000 -0.279077 2.174116
v -0.105284 -0.279077 2.166790
v -1.000000 -0.346121 -0.477953
v -0.999999 0.175758 -0.477953
v -0.457441 -0.346121 0.011276
v -0.457440 0.175758 0.011277
v -0.884891 -0.192781 -0.477935
v -0.884891 0.022418 -0.477934
v -0.572549 -0.192781 -0.196293
v -0.572549 0.022418 -0.196293
v -0.927314 0.339598 -1.988751
v -0.530667 0.339598 -1.988751
v -0.927313 0.339598 -0.994595
v -0.530666 0.339598 -0.994595
v -0.927314 -0.440749 -1.988752
v -0.530666 -0.440749 -1.988752
v -0.927314 -0.440749 -0.994595
v -0.530666 -0.440749 -0.994595
v -1.073859 -0.426666 -2.237914
v -1.073860 0.237441 -2.237914
v -0.384121 -0.426666 -2.237914
v -0.384121 0.237441 -2.237914
v -0.981364 0.445934 -2.237914
v -0.476617 0.445934 -2.237914
v -0.981363 -0.547085 -2.237914
v -0.476617 -0.547085 -2.237914
v -0.982912 -0.327486 -1.995673
v -0.982912 0.161487 -1.995672
v -0.475068 -0.327486 -1.995673
v -0.475068 0.161487 -1.995672
v -0.914809 0.314997 -1.995672
v -0.543172 0.314997 -1.995672
v -0.914809 -0.416148 -1.995673
v -0.543171 -0.416148 -1.995673
v -1.000000 -0.271857 -0.752354
v -3.028953 -0.641582 -2.016121
v -3.028953 -0.641582 -1.161285
v -3.025137 -0.667216 -1.361455
v -3.035197 -0.599634 -1.361455
v -1.959247 -0.523152 -1.027618
v -1.995876 -0.491630 -0.788387
v -1.974154 -0.427553 -1.027654
v -1.643000 -0.445569 -2.240960
v -0.972406 0.237957 -1.843543
v -0.972406 0.237957 -0.993119
v -0.954908 0.277399 -1.843543
v -0.954908 0.277399 -1.159739
v -2.960378 0.814236 -1.979240
v -2.960377 0.814236 -1.445965
v -2.949405 0.838969 -1.979240
v -2.949405 0.838969 -1.550447
v -1.704354 0.555249 -2.085065
v -1.836762 0.507289 -1.902128
v -1.969383 0.508353 -1.212800
v -1.928700 0.540468 -1.345078
vt 0.582784 0.159442
vt 0.546422 0.220894
vt 0.511638 0.198716
vt 0.554511 0.126788
vt 0.919090 0.148263
vt 0.919090 0.227885
vt 0.844847 0.227885
vt 0.844847 0.148263
vt 0.425097 0.875480
vt 0.309098 0.873654
vt 0.310475 0.799547
vt 0.426471 0.801285
vt 0.423455 0.963851
vt 0.381968 0.964455
vt 0.875918 0.641515
vt 0.963782 0.641535
vt 0.963782 0.757809
vt 0.875887 0.683296
vt -0.007301 -1.063520
vt -0.007301 -1.063520
vt -0.007301 -1.063520
vt -0.007301 -1.063520
vt 0.613811 0.878901
vt 0.615185 0.804706
vt 0.780746 0.839335
vt 0.799015 1.025050
vt 0.745425 0.840636
vt 0.746023 0.248897
vt 0.703150 0.320824
vt 0.612147 0.876931
vt 0.611655 0.802693
vt 0.722128 0.802189
vt 0.722484 0.853971
vt 0.423837 0.877820
vt 0.423345 0.803582
vt 0.769446 0.724619
vt 0.707147 0.729260
vt 0.759717 0.461881
vt 0.796187 0.474276
vt 0.083544 0.849578
vt 0.083786 0.795258
vt 0.987462 0.799960
vt 0.986780 0.828912
vt 0.851922 0.716476
vt 0.840557 0.490116
vt 1.061570 0.799153
vt 1.060568 0.816226
vt 0.005522 0.812889
vt 0.004848 0.793621
vt 0.798343 0.385435
vt 0.813587 0.393172
vt 0.835704 0.406951
vt 0.680579 0.178769
vt 0.661316 0.178770
vt 0.662707 0.159160
vt 0.663512 0.145452
vt 0.680579 0.145451
vt 0.522538 0.252880
vt 0.522538 0.365362
vt 0.521438 0.364209
vt 0.522538 0.252880
vt -0.007301 -1.063520
vt -0.007301 -1.063520
vt 0.388905 0.669876
vt 0.473704 0.671427
vt 0.473704 0.671427
vt 0.389103 0.671427
vt 0.473704 0.754211
vt 0.448846 0.736646
vt 0.448846 0.688989
vt 0.413961 0.688989
vt 0.815393 0.883578
vt 0.897853 0.894352
vt 0.870832 0.925386
vt 0.836829 0.920943
vt 0.897853 0.983071
vt 0.870832 0.976460
vt 0.836829 0.972018
vt 0.887652 0.451679
vt 0.951950 0.451694
vt 0.951836 0.603068
vt 0.887538 0.603053
vt 0.561111 0.263763
vt 0.570861 0.249195
vt 0.588126 0.268268
vt 0.835892 0.080129
vt 0.835119 0.261289
vt 0.808556 0.222704
vt 0.809178 0.077038
vt 0.611688 0.954453
vt 0.460223 0.951888
vt 0.461413 0.887630
vt 0.612878 0.890194
vt 0.612146 0.968351
vt 0.927068 0.261289
vt 0.920484 0.080129
vt 0.935667 0.077038
vt 0.935045 0.222704
vt 0.650197 0.881538
vt 0.648683 0.963310
vt 0.792214 0.042828
vt 0.826208 0.046762
vt 0.933855 0.046762
vt 0.953175 0.042828
vt 0.786424 0.257447
vt 0.732475 0.348621
vt 0.878794 0.412713
vt 0.960616 0.412732
vt 0.687132 0.344114
vt 0.712092 0.378258
vt 0.750524 0.236981
vt 0.792760 0.241929
vt 0.546048 0.660173
vt 0.546048 0.737180
vt 0.508198 0.726865
vt 0.508198 0.670166
vt 0.384927 0.698027
vt 0.413770 0.700466
vt 0.385149 0.732791
vt 0.363912 0.730996
vt 0.286733 0.680729
vt 0.291614 0.718259
vt 0.918799 0.831000
vt 0.922979 0.812442
vt 0.963699 0.832425
vt 0.960622 0.846089
vt 0.922979 0.963932
vt 0.918799 0.932312
vt 0.960622 0.920684
vt 0.963699 0.943964
vt 0.217040 0.643152
vt 0.217040 0.720125
vt 0.176755 0.709422
vt 0.176755 0.652748
vt 0.266945 0.674600
vt 0.277044 0.713746
vt 0.560862 0.558251
vt 0.486264 0.557427
vt 0.472860 0.546238
vt 0.473525 0.485997
vt 0.487173 0.475106
vt 0.561771 0.475930
vt 0.585068 0.487228
vt 0.584403 0.547470
vt 0.425215 1.124209
vt 0.461535 1.118731
vt 0.508110 1.291537
vt 0.477795 1.291770
vt 0.206182 0.382115
vt 0.198088 0.343534
vt 0.364872 0.349221
vt 0.375148 0.380196
vt 0.213728 0.585318
vt 0.404169 0.481117
vt 0.647930 1.071023
vt 0.608034 1.293975
vt 0.661405 0.237722
vt 0.632335 0.229703
vt 0.543102 0.187515
vt 0.635943 0.219850
vt 0.110493 0.578225
vt 0.052476 0.388664
vt 0.041042 0.345119
vt 0.678662 0.317929
vt 0.674806 0.323536
vt 0.205802 0.225529
vt 0.193884 0.191056
vt 0.374788 0.257747
vt 0.376242 0.258368
vt 0.197979 0.338931
vt 0.355083 0.341818
vt 0.606892 0.287708
vt 0.617149 0.267463
vt 0.759325 0.332432
vt 0.754419 0.348949
vt 0.550140 0.399361
vt 0.741172 0.416831
vt 0.444673 0.339433
vt 0.465799 0.231180
vt 0.473623 0.204841
vt 0.040761 0.333450
vt 0.074503 0.200371
vt 0.072184 0.199380
vt 0.635960 0.168005
vt 0.580183 0.110426
vt 0.583361 0.107577
vt 0.628210 0.153875
vt 0.582784 0.159442
vt 0.554511 0.126788
vt 0.511638 0.198716
vt 0.546422 0.220894
vt 0.919090 0.148263
vt 0.919090 0.227885
vt 0.425097 0.875480
vt 0.309098 0.873654
vt 0.423455 0.963851
vt 0.381968 0.964455
vt 0.875918 0.641515
vt 0.875887 0.683296
vt 0.963782 0.757809
vt 0.963782 0.641535
vt -0.007301 -1.063520
vt -0.007301 -1.063520
vt -0.007301 -1.063520
vt -0.007301 -1.063520
vt 0.613811 0.878901
vt 0.780746 0.839335
vt 0.745425 0.840636
vt 0.799015 1.025050
vt 0.746023 0.248897
vt 0.703150 0.320824
vt 0.612147 0.876931
vt 0.722484 0.853971
vt 0.423837 0.877820
vt 0.769446 0.724619
vt 0.707147 0.729260
vt 0.796187 0.474276
vt 0.759717 0.461881
vt 0.083544 0.849578
vt 0.986780 0.828912
vt 0.851922 0.716476
vt 0.840557 0.490116
vt 1.060568 0.816226
vt 0.005522 0.812889
vt 0.813587 0.393172
vt 0.798343 0.385435
vt 0.835704 0.406951
vt 0.663512 0.145452
vt 0.662707 0.159160
vt 0.661316 0.178770
vt 0.522538 0.252880
vt 0.522538 0.252880
vt 0.521438 0.364209
vt 0.522538 0.365362
vt -0.007301 -1.063520
vt -0.007301 -1.063520
vt 0.388905 0.669876
vt 0.389103 0.671427
vt 0.473704 0.671427
vt 0.473704 0.671427
vt 0.448846 0.688989
vt 0.448846 0.736646
vt 0.473704 0.754211
vt 0.413961 0.688989
vt 0.815393 0.883578
vt 0.836829 0.920943
vt 0.870832 0.925386
vt 0.897853 0.894352
vt 0.870832 0.976460
vt 0.897853 0.983071
vt 0.836829 0.972018
vt 0.887652 0.451679
vt 0.887538 0.603053
vt 0.951836 0.603068
vt 0.951950 0.451694
vt 0.561111 0.263763
vt 0.588126 0.268268
vt 0.570861 0.249195
vt 0.835892 0.080129
vt 0.809178 0.077038
vt 0.808556 0.222704
vt 0.835119 0.261289
vt 0.611688 0.954453
vt 0.612878 0.890194
vt 0.461413 0.887630
vt 0.460223 0.951888
vt 0.612146 0.968351
vt 0.927068 0.261289
vt 0.935045 0.222704
vt 0.935667 0.077038
vt 0.920484 0.080129
vt 0.648683 0.963310
vt 0.650197 0.881538
vt 0.826208 0.046762
vt 0.792214 0.042828
vt 0.953175 0.042828
vt 0.933855 0.046762
vt 0.732475 0.348621
vt 0.786424 0.257447
vt 0.960616 0.412732
vt 0.878794 0.412713
vt 0.687132 0.344114
vt 0.712092 0.378258
vt 0.792760 0.241929
vt 0.750524 0.236981
vt 0.546048 0.660173
vt 0.508198 0.670166
vt 0.508198 0.726865
vt 0.546048 0.737180
vt 0.384927 0.698027
vt 0.363912 0.730996
vt 0.385149 0.732791
vt 0.413770 0.700466
vt 0.286733 0.680729
vt 0.291614 0.718259
vt 0.918799 0.831000
vt 0.960622 0.846089
vt 0.963699 0.832425
vt 0.922979 0.812442
vt 0.922979 0.963932
vt 0.963699 0.943964
vt 0.960622 0.920684
vt 0.918799 0.932312
vt 0.217040 0.643152
vt 0.176755 0.652748
vt 0.176755 0.709422
vt 0.217040 0.720125
vt 0.266945 0.674600
vt 0.277044 0.713746
vt 0.560862 0.558251
vt 0.584403 0.547470
vt 0.585068 0.487228
vt 0.561771 0.475930
vt 0.487173 0.475106
vt 0.473525 0.485997
vt 0.472860 0.546238
vt 0.486264 0.557427
vt 0.425215 1.124209
vt 0.477795 1.291770
vt 0.508110 1.291537
vt 0.461535 1.118731
vt 0.206182 0.382115
vt 0.375148 0.380196
vt 0.364872 0.349221
vt 0.198088 0.343534
vt 0.213728 0.585318
vt 0.404169 0.481117
vt 0.608034 1.293975
vt 0.647930 1.071023
vt 0.661405 0.237722
vt 0.635943 0.219850
vt 0.543102 0.187515
vt 0.632335 0.229703
vt 0.110493 0.578225
vt 0.052476 0.388664
vt 0.041042 0.345119
vt 0.678662 0.317929
vt 0.674806 0.323536
vt 0.205802 0.225529
vt 0.376242 0.258368
vt 0.374788 0.257747
vt 0.193884 0.191056
vt 0.197979 0.338931
vt 0.355083 0.341818
vt 0.606892 0.287708
vt 0.754419 0.348949
vt 0.759325 0.332432
vt 0.617149 0.267463
vt 0.550140 0.399361
vt 0.741172 0.416831
vt 0.444673 0.339433
vt 0.465799 0.231180
vt 0.473623 0.204841
vt 0.040761 0.333450
vt 0.074503 0.200371
vt 0.072184 0.199380
vt 0.635960 0.168005
vt 0.628210 0.153875
vt 0.583361 0.107577
vt 0.580183 0.110426
vn 0.9998 0.0105 -0.0171
vn 0.0000 0.0000 -1.0000
vn -0.0000 -0.9982 0.0593
vn 0.0367 -0.9956 0.0864
vn 0.0000 1.0000 0.0000
vn 0.0000 0.0000 1.0000
vn 0.0000 -0.9993 -0.0367
vn 1.0000 0.0000 0.0000
vn 0.9999 0.0105 0.0038
vn 0.0000 0.9809 -0.1946
vn -0.0000 0.9846 -0.1749
vn 0.9715 0.2272 0.0681
vn 0.8858 0.4257 0.1846
vn -0.0004 -0.9981 -0.0612
vn 0.0033 0.9565 0.2916
vn 0.9966 0.0000 0.0824
vn 0.0251 0.8379 0.5452
vn -0.0031 -0.9931 -0.1176
vn 0.8753 0.2656 0.4041
vn 0.9206 -0.1654 0.3538
vn 0.0242 -0.6006 0.7992
vn 0.1184 0.9842 0.1314
vn 0.5983 -0.4491 0.6636
vn 0.0002 -0.0000 1.0000
vn 0.8745 0.0000 0.4850
vn 0.5983 0.4491 0.6636
vn 0.6697 0.0000 0.7427
vn -0.0000 0.8283 0.5602
vn 0.9141 0.4055 0.0000
vn -0.9141 0.4055 -0.0000
vn 0.0000 -1.0000 0.0000
vn -0.0008 -0.9802 0.1978
vn 0.6766 -0.7363 -0.0128
vn -0.7152 -0.6987 -0.0142
vn 0.0000 -0.9197 0.3925
vn -0.8569 0.3802 0.3481
vn -0.7280 -0.5592 0.3966
vn -0.9588 0.0000 0.2842
vn 0.9640 0.0083 0.2658
vn -0.0000 0.9197 0.3925
vn 0.8569 0.3802 0.3481
vn 0.7132 -0.5849 0.3864
vn 0.0000 0.8797 -0.4755
vn 0.8272 -0.3670 -0.4256
vn 0.9362 -0.0000 -0.3515
vn -0.6957 0.5344 -0.4800
vn -0.8272 -0.3670 -0.4256
vn 0.0000 -0.8797 -0.4755
vn -0.9362 0.0000 -0.3515
vn 0.6957 0.5344 -0.4800
vn -0.0921 -0.9863 0.1368
vn 0.2208 0.9499 0.2214
vn 0.1460 0.9876 -0.0581
vn -0.1387 -0.9898 -0.0315
vn 0.9891 -0.1472 0.0000
vn -0.1525 -0.9878 -0.0301
vn 0.1379 0.9889 -0.0558
vn 0.2174 0.9453 0.2433
vn -0.0929 -0.9837 0.1542
vn 0.2150 -0.8380 -0.5015
vn 0.2743 -0.9612 -0.0289
vn -0.2217 0.9361 0.2731
vn -0.2460 0.9674 0.0595
vn -0.2866 0.9565 0.0551
vn -0.2009 0.9431 0.2649
vn 0.2752 -0.9611 -0.0230
vn 0.1787 -0.8228 -0.5395
vn -0.9998 0.0105 -0.0171
vn -0.0367 -0.9956 0.0864
vn -1.0000 0.0000 0.0000
vn -0.9999 0.0105 0.0038
vn -0.9715 0.2272 0.0681
vn -0.8858 0.4257 0.1846
vn 0.0004 -0.9981 -0.0612
vn -0.0033 0.9565 0.2916
vn -0.9966 0.0000 0.0824
vn -0.0251 0.8379 0.5452
vn 0.0031 -0.9931 -0.1176
vn -0.8753 0.2656 0.4041
vn -0.9206 -0.1654 0.3538
vn -0.0242 -0.6006 0.7992
vn -0.1184 0.9842 0.1314
vn -0.5983 -0.4491 0.6636
vn -0.0002 -0.0000 1.0000
vn -0.8745 0.0000 0.4850
vn -0.5983 0.4491 0.6636
vn -0.6697 0.0000 0.7427
vn 0.0008 -0.9802 0.1978
vn -0.6766 -0.7363 -0.0128
vn 0.7152 -0.6987 -0.0142
vn 0.7280 -0.5592 0.3966
vn 0.9588 0.0000 0.2842
vn -0.9640 0.0083 0.2658
vn -0.7132 -0.5849 0.3864
vn 0.0921 -0.9863 0.1368
vn -0.2208 0.9499 0.2214
vn -0.1460 0.9876 -0.0581
vn 0.1387 -0.9898 -0.0315
vn -0.9891 -0.1472 0.0000
vn 0.1525 -0.9878 -0.0301
vn -0.1379 0.9889 -0.0558
vn -0.2174 0.9453 0.2433
vn 0.0929 -0.9837 0.1542
vn -0.2150 -0.8380 -0.5015
vn -0.2743 -0.9612 -0.0289
vn 0.2217 0.9361 0.2731
vn 0.2460 0.9674 0.0595
vn 0.2866 0.9565 0.0551
vn 0.2009 0.9431 0.2649
vn -0.2752 -0.9611 -0.0230
vn -0.1787 -0.8228 -0.5395
usemtl Material
s off
f 53/1/1 10/2/1 4/3/1 2/4/1
f 7/5/2 5/6/2 78/7/2 80/8/2
f 11/9/3 6/10/3 79/11/3 87/12/3
f 9/13/4 2/14/4 6/10/4 11/9/4
f 10/15/5 12/16/5 8/17/5 4/18/5
f 4/19/6 8/20/6 24/21/6 22/22/6
f 5/23/7 11/9/7 87/12/7 78/24/7
f 12/25/8 7/26/8 14/27/8
f 1/28/9 3/29/9 10/2/9 53/1/9
f 14/30/10 92/31/10 90/32/10 13/33/10
f 7/34/11 80/35/11 92/31/11 14/30/11
f 8/36/12 12/25/12 14/27/12 13/37/12
f 8/36/13 13/37/13 17/38/13 16/39/13
f 79/11/14 6/10/14 15/40/14 94/41/14
f 13/33/15 90/32/15 97/42/15 17/43/15
f 6/44/16 8/36/16 16/39/16 15/45/16
f 17/43/17 97/42/17 102/46/17 20/47/17
f 94/41/18 15/40/18 18/48/18 99/49/18
f 16/39/19 17/38/19 20/50/19 19/51/19
f 15/45/20 16/39/20 19/51/20 18/52/20
f 99/53/21 18/54/21 19/55/21 20/56/21 102/57/21
f 6/58/22 2/59/22 21/60/22 23/61/22
f 8/20/6 6/62/6 23/63/6 24/21/6
f 2/64/6 4/65/6 22/66/6 21/67/6
f 22/66/23 24/68/23 28/69/23 26/70/23
f 21/67/24 22/66/24 26/70/24 25/71/24
f 24/72/25 23/73/25 27/74/25 28/75/25
f 23/73/26 21/76/26 25/77/26 27/74/26
f 25/77/27 26/78/27 28/75/27 27/74/27
f 29/79/5 30/80/5 32/81/5 31/82/5
f 12/16/28 10/15/28 31/82/28 32/81/28
f 31/83/29 10/2/29 63/84/29 65/85/29
f 7/86/30 12/87/30 32/88/30 30/89/30
f 33/90/31 35/91/31 36/92/31 34/93/31
f 9/13/32 11/9/32 36/92/32 35/91/32
f 1/94/33 9/13/33 35/91/33 33/90/33
f 11/95/34 5/96/34 34/97/34 36/98/34
f 33/90/35 34/93/35 44/99/35 43/100/35
f 7/86/36 30/89/36 42/101/36 40/102/36
f 34/97/37 5/96/37 39/103/37 44/104/37
f 5/96/38 7/86/38 40/102/38 39/103/38
f 3/29/39 1/28/39 37/105/39 38/106/39
f 30/80/40 29/79/40 41/107/40 42/108/40
f 29/109/41 3/29/41 38/106/41 41/110/41
f 1/28/42 33/111/42 43/112/42 37/105/42
f 43/113/43 44/114/43 52/115/43 51/116/43
f 40/117/44 42/118/44 50/119/44 48/120/44
f 39/121/45 40/117/45 48/120/45 47/122/45
f 37/123/46 43/124/46 51/125/46 45/126/46
f 41/127/47 38/128/47 46/129/47 49/130/47
f 42/131/48 41/132/48 49/133/48 50/134/48
f 38/128/49 37/123/49 45/126/49 46/129/49
f 44/135/50 39/121/50 47/122/50 52/136/50
f 46/137/2 45/138/2 51/139/2 52/140/2 47/141/2 48/142/2 50/143/2 49/144/2
f 59/145/51 58/146/51 56/147/51 55/148/51
f 60/149/52 59/150/52 55/151/52 57/152/52
f 61/153/53 60/149/53 57/152/53 54/154/53
f 58/146/54 61/155/54 54/156/54 56/147/54
f 55/157/55 56/158/55 54/159/55 57/160/55
f 9/13/56 1/94/56 61/155/56 58/146/56
f 1/161/57 53/162/57 60/149/57 61/153/57
f 53/162/58 2/163/58 59/150/58 60/149/58
f 2/14/59 9/13/59 58/146/59 59/145/59
f 10/2/29 3/29/29 62/164/29 63/84/29
f 3/29/29 29/109/29 64/165/29 62/164/29
f 29/109/29 31/83/29 65/85/29 64/165/29
f 71/166/60 70/167/60 68/168/60 66/169/60
f 72/170/61 71/166/61 66/169/61 67/171/61
f 73/172/62 72/173/62 67/174/62 69/175/62
f 70/176/63 73/172/63 69/175/63 68/177/63
f 64/178/64 65/179/64 73/172/64 70/176/64
f 65/179/65 63/180/65 72/173/65 73/172/65
f 63/181/66 62/182/66 71/166/66 72/170/66
f 62/182/67 64/183/67 70/167/67 71/166/67
f 67/184/29 66/185/29 68/186/29 69/187/29
f 136/188/68 75/189/68 77/190/68 86/191/68
f 83/192/2 80/8/2 78/7/2 81/193/2
f 88/194/3 87/12/3 79/11/3 82/195/3
f 85/196/69 88/194/69 82/195/69 75/197/69
f 86/198/5 77/199/5 84/200/5 89/201/5
f 77/202/6 105/203/6 107/204/6 84/205/6
f 81/206/7 78/24/7 87/12/7 88/194/7
f 89/207/70 93/208/70 83/209/70
f 74/210/71 136/188/71 86/191/71 76/211/71
f 93/212/10 91/213/10 90/32/10 92/31/10
f 83/214/11 93/212/11 92/31/11 80/35/11
f 84/215/72 91/216/72 93/208/72 89/207/72
f 84/215/73 96/217/73 98/218/73 91/216/73
f 79/11/74 94/41/74 95/219/74 82/195/74
f 91/213/75 98/220/75 97/42/75 90/32/75
f 82/221/76 95/222/76 96/217/76 84/215/76
f 98/220/77 103/223/77 102/46/77 97/42/77
f 94/41/78 99/49/78 100/224/78 95/219/78
f 96/217/79 101/225/79 103/226/79 98/218/79
f 95/222/80 100/227/80 101/225/80 96/217/80
f 99/53/81 102/57/81 103/228/81 101/229/81 100/230/81
f 82/231/82 106/232/82 104/233/82 75/234/82
f 84/205/6 107/204/6 106/235/6 82/236/6
f 75/237/6 104/238/6 105/239/6 77/240/6
f 105/239/83 109/241/83 111/242/83 107/243/83
f 104/238/84 108/244/84 109/241/84 105/239/84
f 107/245/85 111/246/85 110/247/85 106/248/85
f 106/248/86 110/247/86 108/249/86 104/250/86
f 108/249/87 110/247/87 111/246/87 109/251/87
f 112/252/5 114/253/5 115/254/5 113/255/5
f 89/201/28 115/254/28 114/253/28 86/198/28
f 114/256/30 148/257/30 146/258/30 86/191/30
f 83/259/29 113/260/29 115/261/29 89/262/29
f 116/263/31 117/264/31 119/265/31 118/266/31
f 85/196/88 118/266/88 119/265/88 88/194/88
f 74/267/89 116/263/89 118/266/89 85/196/89
f 88/268/90 119/269/90 117/270/90 81/271/90
f 116/263/35 126/272/35 127/273/35 117/264/35
f 83/259/41 123/274/41 125/275/41 113/260/41
f 117/270/91 127/276/91 122/277/91 81/271/91
f 81/271/92 122/277/92 123/274/92 83/259/92
f 76/211/93 121/278/93 120/279/93 74/210/93
f 113/255/40 125/280/40 124/281/40 112/252/40
f 112/282/36 124/283/36 121/278/36 76/211/36
f 74/210/94 120/279/94 126/284/94 116/285/94
f 126/286/43 134/287/43 135/288/43 127/289/43
f 123/290/47 131/291/47 133/292/47 125/293/47
f 122/294/49 130/295/49 131/291/49 123/290/49
f 120/296/50 128/297/50 134/298/50 126/299/50
f 124/300/44 132/301/44 129/302/44 121/303/44
f 125/304/48 133/305/48 132/306/48 124/307/48
f 121/303/45 129/302/45 128/297/45 120/296/45
f 127/308/46 135/309/46 130/295/46 122/294/46
f 129/310/2 132/311/2 133/312/2 131/313/2 130/314/2 135/315/2 134/316/2 128/317/2
f 142/318/95 138/319/95 139/320/95 141/321/95
f 143/322/96 140/323/96 138/324/96 142/325/96
f 144/326/97 137/327/97 140/323/97 143/322/97
f 141/321/98 139/320/98 137/328/98 144/329/98
f 138/330/99 140/331/99 137/332/99 139/333/99
f 85/196/100 141/321/100 144/329/100 74/267/100
f 74/334/101 144/326/101 143/322/101 136/335/101
f 136/335/102 143/322/102 142/325/102 75/336/102
f 75/197/103 142/318/103 141/321/103 85/196/103
f 86/191/30 146/258/30 145/337/30 76/211/30
f 76/211/30 145/337/30 147/338/30 112/282/30
f 112/282/30 147/338/30 148/257/30 114/256/30
f 154/339/104 149/340/104 151/341/104 153/342/104
f 155/343/105 150/344/105 149/340/105 154/339/105
f 156/345/106 152/346/106 150/347/106 155/348/106
f 153/349/107 151/350/107 152/346/107 156/345/107
f 147/351/108 153/349/108 156/345/108 148/352/108
f 148/352/109 156/345/109 155/348/109 146/353/109
f 146/354/110 155/343/110 154/339/110 145/355/110
f 145/355/111 154/339/111 153/342/111 147/356/111
f 150/357/30 152/358/30 151/359/30 149/360/30
