# Blender v2.79 (sub 0) OBJ File: ''
# www.blender.org
mtllib pointer11.mtl
o Cube
v 0.266823 -0.325858 -1.000000
v 0.358641 -0.325858 1.000000
v 0.266823 0.325858 -1.000000
v 0.358641 0.325858 1.000001
v 0.254636 0.325858 1.298039
v 0.254637 -0.325859 1.298038
v 0.392493 -0.325858 -1.000000
v 0.358641 -0.325858 1.000000
v 0.392493 0.325858 -1.000000
v 0.358641 0.325858 1.000001
v 0.254636 0.325858 1.298039
v 0.254637 -0.325859 1.298038
v 0.688427 -0.325858 -1.000000
v 0.358641 -0.325858 1.000000
v 0.688428 0.325858 -1.000000
v 0.358641 0.325858 1.000001
v 0.254636 0.325858 1.298039
v 0.254637 -0.325859 1.298038
v 1.528316 -0.325858 -2.388753
v 0.358641 -0.325858 1.000000
v 1.528317 0.325858 -2.388752
v 0.358641 0.325858 1.000001
v 0.254636 0.325858 1.298039
v 0.254637 -0.325859 1.298038
v -0.266823 -0.325858 -1.000000
v -0.358641 -0.325858 1.000000
v 0.000000 0.325858 2.138738
v 0.000000 -0.325859 2.138738
v -0.266823 0.325858 -1.000000
v -0.358641 0.325858 1.000001
v -0.254636 0.325858 1.298039
v -0.254637 -0.325859 1.298038
v 0.000000 -0.325858 -1.000000
v 0.000000 -0.325858 1.000000
v 0.000000 0.325858 -1.000000
v 0.000000 0.325858 1.000000
v -0.392493 -0.325858 -1.000000
v -0.358641 -0.325858 1.000000
v 0.000000 0.325858 2.138738
v 0.000000 -0.325859 2.138738
v -0.392493 0.325858 -1.000000
v -0.358641 0.325858 1.000001
v -0.254636 0.325858 1.298039
v -0.254637 -0.325859 1.298038
v 0.000000 -0.325858 -1.000000
v 0.000000 -0.325858 1.000000
v 0.000000 0.325858 -1.000000
v 0.000000 0.325858 1.000000
v -0.688427 -0.325858 -1.000000
v -0.358641 -0.325858 1.000000
v 0.000000 0.325858 2.138738
v 0.000000 -0.325859 2.138738
v -0.688428 0.325858 -1.000000
v -0.358641 0.325858 1.000001
v -0.254636 0.325858 1.298039
v -0.254637 -0.325859 1.298038
v 0.000000 -0.325858 -1.000000
v 0.000000 -0.325858 1.000000
v 0.000000 0.325858 -1.000000
v 0.000000 0.325858 1.000000
v -1.528316 -0.325858 -2.388753
v -0.358641 -0.325858 1.000000
v 0.000000 0.325858 2.138738
v 0.000000 -0.325859 2.138738
v -1.528317 0.325858 -2.388752
v -0.358641 0.325858 1.000001
v -0.254636 0.325858 1.298039
v -0.254637 -0.325859 1.298038
v 0.000000 -0.325858 -1.000000
v 0.000000 -0.325858 1.000000
v 0.000000 0.325858 -1.000000
v 0.000000 0.325858 1.000000
vn 0.9571 0.0000 0.2899
vn 0.9989 0.0000 -0.0459
vn -0.0000 -1.0000 -0.0000
vn 0.0000 1.0000 0.0000
vn 0.0000 0.0000 -1.0000
vn 0.9442 0.0000 0.3295
vn -0.9571 -0.0000 -0.2899
vn -0.9999 -0.0000 -0.0169
vn -0.0000 -0.0000 1.0000
vn -0.9442 -0.0000 -0.3295
vn -0.9867 0.0000 -0.1627
vn 0.9453 -0.0000 0.3263
vn -0.6725 0.0000 -0.7401
vn -0.9571 0.0000 0.2899
vn -0.9989 0.0000 -0.0459
vn -0.9442 0.0000 0.3295
vn 0.9571 -0.0000 -0.2899
vn 0.9999 -0.0000 -0.0169
vn 0.9442 -0.0000 -0.3295
vn 0.9867 0.0000 -0.1627
vn -0.9453 -0.0000 0.3263
vn 0.6725 0.0000 -0.7401
usemtl Material
s off
f 6//1 5//1 27//1 28//1
f 1//2 3//2 4//2 2//2
f 34//3 2//3 6//3 28//3
f 4//4 36//4 27//4 5//4
f 3//5 1//5 33//5 35//5
f 2//6 4//6 5//6 6//6
f 3//4 35//4 36//4 4//4
f 1//3 2//3 34//3 33//3
f 12//7 40//7 39//7 11//7
f 7//8 8//8 10//8 9//8
f 46//4 40//4 12//4 8//4
f 10//3 11//3 39//3 48//3
f 9//9 47//9 45//9 7//9
f 8//10 12//10 11//10 10//10
f 9//3 10//3 48//3 47//3
f 7//4 45//4 46//4 8//4
f 18//7 52//7 51//7 17//7
f 13//11 14//11 16//11 15//11
f 58//4 52//4 18//4 14//4
f 16//3 17//3 51//3 60//3
f 15//9 59//9 57//9 13//9
f 14//10 18//10 17//10 16//10
f 15//3 16//3 60//3 59//3
f 13//4 57//4 58//4 14//4
f 24//1 23//1 63//1 64//1
f 19//12 21//12 22//12 20//12
f 70//3 20//3 24//3 64//3
f 22//4 72//4 63//4 23//4
f 21//13 19//13 69//13 71//13
f 20//6 22//6 23//6 24//6
f 21//4 71//4 72//4 22//4
f 19//3 20//3 70//3 69//3
f 32//14 28//14 27//14 31//14
f 25//15 26//15 30//15 29//15
f 34//3 28//3 32//3 26//3
f 30//4 31//4 27//4 36//4
f 29//5 35//5 33//5 25//5
f 26//16 32//16 31//16 30//16
f 29//4 30//4 36//4 35//4
f 25//3 33//3 34//3 26//3
f 44//17 43//17 39//17 40//17
f 37//18 41//18 42//18 38//18
f 46//4 38//4 44//4 40//4
f 42//3 48//3 39//3 43//3
f 41//9 37//9 45//9 47//9
f 38//19 42//19 43//19 44//19
f 41//3 47//3 48//3 42//3
f 37//4 38//4 46//4 45//4
f 56//17 55//17 51//17 52//17
f 49//20 53//20 54//20 50//20
f 58//4 50//4 56//4 52//4
f 54//3 60//3 51//3 55//3
f 53//9 49//9 57//9 59//9
f 50//19 54//19 55//19 56//19
f 53//3 59//3 60//3 54//3
f 49//4 50//4 58//4 57//4
f 68//14 64//14 63//14 67//14
f 61//21 62//21 66//21 65//21
f 70//3 64//3 68//3 62//3
f 66//4 67//4 63//4 72//4
f 65//22 71//22 69//22 61//22
f 62//16 68//16 67//16 66//16
f 65//4 66//4 72//4 71//4
f 61//3 69//3 70//3 62//3
