# Blender v2.79 (sub 0) OBJ File: ''
# www.blender.org
mtllib untitled.mtl
o Cube
v 1.000000 0.336589 -1.000000
v 1.000000 0.336589 0.510798
v 1.000000 0.858467 -0.999999
v 0.999999 0.858467 0.510799
v 0.457980 0.336589 -1.000000
v 0.457441 0.336589 1.000028
v 0.457980 0.858467 -1.000000
v 0.457440 0.858467 1.000028
v 1.000000 0.336589 0.236398
v 1.000000 0.858467 0.236398
v 0.457980 0.336589 0.236398
v 0.457980 0.858467 0.236398
v 0.458628 1.226408 0.985664
v 0.457980 1.080625 0.250812
v 0.335216 0.245830 2.478379
v 0.324352 0.512129 2.609787
v 0.317757 0.706273 2.689559
v 0.292774 0.185249 2.991738
v 0.284197 0.313780 3.095475
v 0.279231 0.403632 3.155541
v 1.000000 0.336589 0.510798
v 0.999999 0.858467 0.510799
v 0.457441 0.336589 1.000028
v 0.457440 0.858467 1.000028
v 0.884891 0.489929 0.510817
v 0.884891 0.705127 0.510817
v 0.572549 0.489929 0.792458
v 0.572549 0.705127 0.792458
v 1.116559 0.224362 -1.252251
v 1.116559 0.970695 -1.252251
v 0.341421 0.224362 -1.252251
v 0.341422 0.970695 -1.252251
v 0.889552 0.442933 -1.084869
v 0.889552 0.752123 -1.084869
v 0.568429 0.442933 -1.084869
v 0.568429 0.752123 -1.084869
v -1.000000 0.336589 -1.000000
v -1.000000 0.336589 0.510798
v -1.000000 0.858467 -0.999999
v -0.999999 0.858467 0.510799
v 0.000000 0.336589 -1.000000
v 0.000000 0.336589 1.000000
v 0.000000 0.858467 -1.000000
v -0.457980 0.336589 -1.000000
v -0.457441 0.336589 1.000028
v -0.457980 0.858467 -1.000000
v -0.457440 0.858467 1.000028
v -1.000000 0.336589 0.236398
v -1.000000 0.858467 0.236398
v 0.000000 0.336589 0.236398
v -0.457980 0.336589 0.236398
v -0.457980 0.858467 0.236398
v 0.000000 1.226408 0.985586
v -0.458628 1.226408 0.985664
v 0.000000 1.080625 0.250812
v -0.457980 1.080625 0.250812
v 0.000000 0.245830 2.483395
v -0.335216 0.245830 2.478379
v -0.324352 0.512129 2.609787
v 0.000000 0.706273 2.695296
v -0.317757 0.706273 2.689559
v 0.000000 0.185249 2.998505
v -0.292774 0.185249 2.991738
v -0.284197 0.313780 3.095475
v 0.000000 0.403632 3.162867
v -0.279231 0.403632 3.155541
v -1.000000 0.336589 0.510798
v -0.999999 0.858467 0.510799
v -0.457441 0.336589 1.000028
v -0.457440 0.858467 1.000028
v -0.884891 0.489929 0.510817
v -0.884891 0.705127 0.510817
v -0.572549 0.489929 0.792458
v -0.572549 0.705127 0.792458
v -1.116559 0.224362 -1.252251
v -1.116559 0.970695 -1.252251
v -0.341421 0.224362 -1.252251
v -0.341422 0.970695 -1.252251
v -0.889552 0.442933 -1.084869
v -0.889552 0.752123 -1.084869
v -0.568429 0.442933 -1.084869
v -0.568429 0.752123 -1.084869
vn 1.0000 0.0000 0.0000
vn 0.0000 0.0000 -1.0000
vn 0.0000 -1.0000 0.0000
vn 0.0000 1.0000 -0.0000
vn 0.0000 0.0000 1.0000
vn 0.0000 0.9809 -0.1946
vn -0.0000 0.9846 -0.1749
vn 1.0000 -0.0020 0.0001
vn 0.9966 -0.0000 0.0824
vn -0.0004 -0.9981 -0.0612
vn 0.0021 0.9565 0.2916
vn 0.0119 0.8388 0.5443
vn -0.0022 -0.9931 -0.1171
vn 0.0095 -0.6007 0.7994
vn 0.5983 -0.4491 0.6636
vn 0.0002 -0.0000 1.0000
vn 0.8745 0.0000 0.4850
vn 0.5983 0.4491 0.6636
vn 0.6697 0.0000 0.7427
vn -0.0000 0.9137 0.4065
vn -0.0000 -0.9137 0.4065
vn -0.9078 0.0000 0.4195
vn 0.9078 -0.0000 0.4195
vn 0.0000 -0.6080 -0.7939
vn -0.5935 0.0000 -0.8049
vn 0.5935 0.0000 -0.8049
vn 0.0000 0.6080 -0.7939
vn -1.0000 0.0000 0.0000
vn -1.0000 -0.0020 0.0001
vn -0.9966 0.0000 0.0824
vn 0.0004 -0.9981 -0.0612
vn -0.0021 0.9565 0.2916
vn -0.0119 0.8388 0.5443
vn 0.0022 -0.9931 -0.1171
vn -0.0095 -0.6007 0.7994
vn -0.5983 -0.4491 0.6636
vn -0.0002 -0.0000 1.0000
vn -0.8745 0.0000 0.4850
vn -0.5983 0.4491 0.6636
vn -0.6697 0.0000 0.7427
usemtl Material
s off
f 9//1 10//1 4//1 2//1
f 7//2 5//2 41//2 43//2
f 11//3 6//3 42//3 50//3
f 9//3 2//3 6//3 11//3
f 10//4 12//4 8//4 4//4
f 4//5 8//5 24//5 22//5
f 3//4 7//4 12//4 10//4
f 1//3 9//3 11//3 5//3
f 5//3 11//3 50//3 41//3
f 12//1 7//1 14//1
f 1//1 3//1 10//1 9//1
f 14//6 55//6 53//6 13//6
f 7//7 43//7 55//7 14//7
f 8//8 12//8 14//8 13//8
f 8//9 13//9 17//9 16//9
f 42//10 6//10 15//10 57//10
f 13//11 53//11 60//11 17//11
f 6//9 8//9 16//9 15//9
f 17//12 60//12 65//12 20//12
f 57//13 15//13 18//13 62//13
f 16//9 17//9 20//9 19//9
f 15//9 16//9 19//9 18//9
f 62//14 18//14 19//14 20//14 65//14
f 6//5 2//5 21//5 23//5
f 8//5 6//5 23//5 24//5
f 2//5 4//5 22//5 21//5
f 22//15 24//15 28//15 26//15
f 21//16 22//16 26//16 25//16
f 24//17 23//17 27//17 28//17
f 23//18 21//18 25//18 27//18
f 25//19 26//19 28//19 27//19
f 7//20 3//20 30//20 32//20
f 1//21 5//21 31//21 29//21
f 5//22 7//22 32//22 31//22
f 3//23 1//23 29//23 30//23
f 32//24 30//24 34//24 36//24
f 30//25 29//25 33//25 34//25
f 31//26 32//26 36//26 35//26
f 29//27 31//27 35//27 33//27
f 34//2 33//2 35//2 36//2
f 48//28 38//28 40//28 49//28
f 46//2 43//2 41//2 44//2
f 51//3 50//3 42//3 45//3
f 48//3 51//3 45//3 38//3
f 49//4 40//4 47//4 52//4
f 40//5 68//5 70//5 47//5
f 39//4 49//4 52//4 46//4
f 37//3 44//3 51//3 48//3
f 44//3 41//3 50//3 51//3
f 52//28 56//28 46//28
f 37//28 48//28 49//28 39//28
f 56//6 54//6 53//6 55//6
f 46//7 56//7 55//7 43//7
f 47//29 54//29 56//29 52//29
f 47//30 59//30 61//30 54//30
f 42//31 57//31 58//31 45//31
f 54//32 61//32 60//32 53//32
f 45//30 58//30 59//30 47//30
f 61//33 66//33 65//33 60//33
f 57//34 62//34 63//34 58//34
f 59//30 64//30 66//30 61//30
f 58//30 63//30 64//30 59//30
f 62//35 65//35 66//35 64//35 63//35
f 45//5 69//5 67//5 38//5
f 47//5 70//5 69//5 45//5
f 38//5 67//5 68//5 40//5
f 68//36 72//36 74//36 70//36
f 67//37 71//37 72//37 68//37
f 70//38 74//38 73//38 69//38
f 69//39 73//39 71//39 67//39
f 71//40 73//40 74//40 72//40
f 46//20 78//20 76//20 39//20
f 37//21 75//21 77//21 44//21
f 44//23 77//23 78//23 46//23
f 39//22 76//22 75//22 37//22
f 78//24 82//24 80//24 76//24
f 76//26 80//26 79//26 75//26
f 77//25 81//25 82//25 78//25
f 75//27 79//27 81//27 77//27
f 80//2 82//2 81//2 79//2
